<svg preserveAspectRatio="none" overflow="visible" style="display: block;" width="24" height="24" viewBox="0 0 24 24" fill="none" xmlns="http://www.w3.org/2000/svg">
<g id="Icon / Missing information">
<path id="Vector" d="M12 21C16.9706 21 21 16.9706 21 12C21 7.02944 16.9706 3 12 3C7.02944 3 3 7.02944 3 12C3 16.9706 7.02944 21 12 21Z" stroke="#FF8D2A" stroke-width="1.8" stroke-linecap="round" stroke-linejoin="round"/>
<path id="Vector_2" d="M9.8 9C10.0217 8.49107 10.4129 8.07471 10.907 7.82183C11.4012 7.56895 11.9678 7.49519 12.5102 7.61311C13.0526 7.73103 13.5374 8.03334 13.882 8.46856C14.2266 8.90377 14.4096 9.44498 14.4 10C14.4 11.8 12 12.1 12 13.8" stroke="#FF8D2A" stroke-width="1.8" stroke-linecap="round" stroke-linejoin="round"/>
<path id="Vector_3" d="M12 17H12.01" stroke="#FF8D2A" stroke-width="1.8" stroke-linecap="round" stroke-linejoin="round"/>
</g>
</svg>
